/* XPM */
static char * dualword_index_32x32_xpm[] = {
"32 32 228 2",
"  	c None",
". 	c #FFFFFF",
"+ 	c #FBFBFB",
"@ 	c #F7F7F7",
"# 	c #FAFAFA",
"$ 	c #FEFEFE",
"% 	c #ECEDEB",
"& 	c #E1E2E0",
"* 	c #D9DAD8",
"= 	c #FAFBFB",
"- 	c #FDFDFD",
"; 	c #FCFCFC",
"> 	c #FEFFFF",
", 	c #E7E8E6",
"' 	c #EAEBE8",
") 	c #E5E7E4",
"! 	c #CFD2D2",
"~ 	c #CCCECD",
"{ 	c #C2C5C7",
"] 	c #C7C8C8",
"^ 	c #EAEBEB",
"/ 	c #C3C6C5",
"( 	c #C0C6C7",
"_ 	c #BDBEC0",
": 	c #E4E5E4",
"< 	c #D8D9D8",
"[ 	c #DADAD9",
"} 	c #F8F8F8",
"| 	c #ECECEE",
"1 	c #F4F5F4",
"2 	c #F2F1F0",
"3 	c #EFF1F3",
"4 	c #EBEBEA",
"5 	c #E5E3E3",
"6 	c #F0F0F0",
"7 	c #FDFDFC",
"8 	c #EBECEB",
"9 	c #D5D6D4",
"0 	c #F5F5F6",
"a 	c #E7E8E7",
"b 	c #E3E4E2",
"c 	c #E1E1E0",
"d 	c #CCCBC6",
"e 	c #ABAEB0",
"f 	c #C2C3C3",
"g 	c #BCBEBB",
"h 	c #D4D6D7",
"i 	c #C3C4C5",
"j 	c #D3D5D5",
"k 	c #BFBFBF",
"l 	c #F9FCFD",
"m 	c #E7E7E6",
"n 	c #E5E6E5",
"o 	c #E7E7E7",
"p 	c #FBFAFA",
"q 	c #ECEDED",
"r 	c #F9F9FA",
"s 	c #F8F6F4",
"t 	c #F4F5F6",
"u 	c #F8F7F7",
"v 	c #F3F4F5",
"w 	c #FFFEFD",
"x 	c #F1F3F4",
"y 	c #ECECEB",
"z 	c #FBFCFC",
"A 	c #E2E3E1",
"B 	c #D4D4D2",
"C 	c #EFF1F1",
"D 	c #FAFAF7",
"E 	c #EDF1F8",
"F 	c #E6E7E6",
"G 	c #EAEBE9",
"H 	c #E8E9E7",
"I 	c #B8BBBC",
"J 	c #C2C5C6",
"K 	c #C7CCCF",
"L 	c #D8DBE1",
"M 	c #ACB0B2",
"N 	c #C8C9C9",
"O 	c #CBCFD4",
"P 	c #DCE1E2",
"Q 	c #A7ADAC",
"R 	c #C3C4C0",
"S 	c #B6B4B3",
"T 	c #AAACAD",
"U 	c #C6C8C7",
"V 	c #ADB1B5",
"W 	c #E5E5E4",
"X 	c #D6D7D5",
"Y 	c #E1E2E2",
"Z 	c #F9F8F8",
"` 	c #EBECEA",
" .	c #F3F4F3",
"..	c #E7E7E8",
"+.	c #FBFBFC",
"@.	c #D8D9DA",
"#.	c #DBDFE2",
"$.	c #D4D6D8",
"%.	c #E6E6E6",
"&.	c #B3B5B7",
"*.	c #C7CBCE",
"=.	c #D8DBE0",
"-.	c #B5BABB",
";.	c #C6C7C7",
">.	c #CFD2D8",
",.	c #DDE3E4",
"'.	c #D8D8D9",
").	c #C6C9CA",
"!.	c #A6ABAE",
"~.	c #E4E4E4",
"{.	c #D1D2D1",
"].	c #CFD0CF",
"^.	c #E5E6E6",
"/.	c #F6F6F5",
"(.	c #F1F2F1",
"_.	c #EAEBEA",
":.	c #E0E1DF",
"<.	c #D9DBD8",
"[.	c #EBEBEE",
"}.	c #FBFBFA",
"|.	c #FFFDFC",
"1.	c #F6F5F3",
"2.	c #F0F0F1",
"3.	c #F6F6F8",
"4.	c #DEDFDF",
"5.	c #D8DDDF",
"6.	c #F8F9F9",
"7.	c #FAF9F8",
"8.	c #F9F8F7",
"9.	c #F4F2EF",
"0.	c #D8DFE4",
"a.	c #E5E6E4",
"b.	c #D9DBDC",
"c.	c #B7B7B7",
"d.	c #C9CBC7",
"e.	c #CCCECE",
"f.	c #C7CACB",
"g.	c #E1DCDA",
"h.	c #CCCDCD",
"i.	c #E1E4DC",
"j.	c #A6AAAC",
"k.	c #D7D7D7",
"l.	c #B3B4B3",
"m.	c #BFC0BF",
"n.	c #E8E9E8",
"o.	c #D0D1D0",
"p.	c #CFCFCE",
"q.	c #F4F4F3",
"r.	c #F0F1EF",
"s.	c #E8E9EC",
"t.	c #F7F5F4",
"u.	c #F1F0EE",
"v.	c #EAEBEC",
"w.	c #F5F4F5",
"x.	c #DDDFDF",
"y.	c #D4D5D6",
"z.	c #D5D8D9",
"A.	c #BDC2C5",
"B.	c #E4E4E3",
"C.	c #DFE0E0",
"D.	c #B9B9B9",
"E.	c #C7C9C6",
"F.	c #CDD0D1",
"G.	c #CBCECE",
"H.	c #E0DDDA",
"I.	c #C7C9CA",
"J.	c #D7D8D8",
"K.	c #C3C6C8",
"L.	c #E6E1DB",
"M.	c #FAFBFC",
"N.	c #EFEFEF",
"O.	c #D1D2D0",
"P.	c #FDFEFE",
"Q.	c #EEEFED",
"R.	c #EEEFEE",
"S.	c #E9EAEA",
"T.	c #D9DAD7",
"U.	c #F2F3F3",
"V.	c #F1F1F2",
"W.	c #E7E8E8",
"X.	c #FCFBFB",
"Y.	c #EDEFF2",
"Z.	c #E7EAE8",
"`.	c #F4F4F5",
" +	c #F3F4F4",
".+	c #BAC0C1",
"++	c #E3E3E2",
"@+	c #ACB0B0",
"#+	c #D2D4D4",
"$+	c #D4D5D5",
"%+	c #B0B0AF",
"&+	c #DFE3E9",
"*+	c #94999E",
"=+	c #DBE1E2",
"-+	c #CED0CF",
";+	c #BDC2B9",
">+	c #BCBAB9",
",+	c #B2B2B3",
"'+	c #9FA2A3",
")+	c #CDCECB",
"!+	c #F2F3F5",
"~+	c #F5F5F5",
"{+	c #EDEEED",
"]+	c #EEEEEE",
"^+	c #F3F3F2",
"/+	c #E9EAE8",
"(+	c #ECEDEC",
"_+	c #EAEAE9",
":+	c #E3E4E4",
"<+	c #F2F3F2",
"[+	c #D8DADB",
"}+	c #F0F1F2",
"|+	c #C5C5C5",
"1+	c #C3C4C1",
"2+	c #F2F4F7",
"3+	c #E9E9E8",
"4+	c #EDEDED",
"5+	c #D3D2D2",
"6+	c #CDCFCF",
"7+	c #D9DADB",
"8+	c #C0BFBF",
"9+	c #E0E3E9",
"0+	c #ADB1B4",
"a+	c #DBE1E3",
"b+	c #D8D9D9",
"c+	c #C3C3C4",
"d+	c #C4C6C6",
"e+	c #EDEEEE",
". . + @ # $ . . . . . . $ . . . . . . . . . . . . . . . . . . . ",
". . % & * $ = - - ; - - - ; > . . . . . . . . . . . . . . . . . ",
". . , ' ) - ! ~ { ] ^ / ( _ . . . . . . . . . . . . . . . . . . ",
". . : < [ + } | 1 2 3 4 5 6 > . . . . . . . . . . . . . . . . . ",
". . - 7 $ . . $ . . . $ . . . . . . . . . . . . . . . . . . . . ",
". . 8 & 9 - 0 . . . ; . . . . . . . . . . . . . . . . . . . . . ",
". . a b c ; d e f g h i j k l . . . . . . . . . . . . . . . . . ",
". . m n o ; p q r s t u v w x . . . . . . . . . . . . . . . . . ",
". . ; y z . $ . . $ . . $ . . . . . . . $ . . . . . . . . . . . ",
". . 8 A B - . . . . 6 } . . C . . . D E . . . . . . . . . . . . ",
". . F G H - I J K L M N O P Q R S T U V . . . . . . . . . . . . ",
". . W X * + Y . . . . . . . . . . . . . $ . . . . . . . . . . . ",
". . Z `  .. . $ . . . . . . . . . . . . . . . . . . . . . . . . ",
". . 4 A X - . . . . ..+.. - @.#.$.. . . . . . . . . . . . . . . ",
". . %.m ` - &.J *.=.-.;.>.,.'.).!.. . . . . . . . . . . . . . . ",
". . ~.{.].# ^.. . . . . . . . . . $ . . . . . . . . . . . . . . ",
". . /.G (.$ . $ . . . $ . $ . . . . . . . . . . . . . . . . . . ",
". . _.:.<.- [.}.|.1.2.3.4.5.6.7.8.9.0.> . . . . . . . . . . . . ",
". . a.% G 7 b.c.d.e.f.g.h.i.j.k.l.m.J . . . . . . . . . . . . . ",
". . n.o.p.# . . . . . . . . . . . . . $ . . . . . . . . . . . . ",
". . q.G r.$ $ . . . . $ . . . . $ . . . . . . . . . . . . . . . ",
". . G c <.- s. .t.u.v.w.x.y.z.A.. . . . . . . . . . . . . . . . ",
". . n , B.7 C.D.E.F.G.H.I.J.K.L.M.. . . . . . . . . . . . . . . ",
". . N.O.{.+ $ - $ - P.$ - ; $ ; . . . . . . . . . . . . . . . . ",
". . q.Q.R.$ . $ . . . . . . . $ . . $ . $ . . . . . . . . . . . ",
". . S.A T.- ~.U.V.W.b.X.Y.C Z.`.6  +2..+. . . . . . . . . . . . ",
". . : m ++; p.@+#+$+%+&+*+=+-+;+>+,+'+)+!+. . . . . . . . . . . ",
". . ~+{+]+- . . . . . . . . . . . . . . . . . . . . . . . . . . ",
". . ^+/+(+$ . $ . . . . $ . . . . . . . . . . . . . . . . . . . ",
". . _+c 9 - :+<+0 6 [+7 }+U.:+|+1+2+. . . . . . . . . . . . . . ",
". . W 3+4+- 5+6+7+7+8+9+0+a+b+c+d+3 . . . . . . . . . . . . . . ",
". . ~+e+(+- . . . . . . . . . . . . . . . . . . . . . . . . . . "};
